<svg width="256" height="256" viewBox="0 0 256 256" fill="none" xmlns="http://www.w3.org/2000/svg">
    <path
        d="M144.808 112.877V11.3789C145.634 1.85967 154.2 -2.5933 162.834 1.55302C234.3 47.7892 265.357 36.6835 171.63 86.866C160.29 99.5183 174.458 118.01 190.278 110.224C207.045 101.971 223.027 89.6924 239.929 81.3865C247.738 78.64 255.086 82.9197 255.438 91.2256C254.058 114.637 257.224 140.008 255.438 163.206C255.627 172.006 245.735 176.912 238.251 172.619C210.198 154.794 179.465 139.862 151.453 122.143C147.812 119.837 145.282 117.45 144.808 112.891V112.877Z"
        fill="#F5F5F5" />
    <path
        d="M111.192 112.877V11.3789C110.366 1.85967 101.8 -2.5933 93.1663 1.55302C21.7002 47.7892 -9.35733 36.6835 84.3701 86.866C95.7105 99.5183 81.5418 118.01 65.722 110.224C48.955 101.971 32.9729 89.6924 16.0706 81.3865C8.26224 78.64 0.913988 82.9197 0.562138 91.2256C1.94247 114.637 -1.22418 140.008 0.562138 163.206C0.37268 172.006 10.2651 176.912 17.7487 172.619C45.8019 154.794 76.5347 139.862 104.547 122.143C108.188 119.837 110.718 117.45 111.192 112.891V112.877Z"
        fill="#F5F5F5" />
    <path
        d="M225.272 200.715L133.682 147.492C128.215 144.919 124.954 145.573 119.757 148.172L30.1707 200.461C25.0418 204.048 24.5953 211.954 29.0204 216.287C49.942 229.752 72.907 241.151 94.2886 254.084C101.637 258.297 111.15 254.444 112.016 245.751C113.857 227.392 110.514 206.114 112.016 187.516C113.491 169.104 140.422 168.544 143.223 186.742C147.053 202.261 130.8 269.696 162.128 253.51C183.009 242.898 203.213 228.526 224.121 217.687C230.522 214.02 231.036 205.234 225.299 200.701L225.272 200.715Z"
        fill="#F5F5F5" />
</svg>
